# xmcd CD database file
#
# Track frame offsets:
#	150
#	32478
#	79772
#	111112
#	179780
#	207832
#
# Disc length: 3186 seconds
#
# Revision: 0
# Processed by: cddbd v1.5.2PL0 Copyright (c) Steve Scherf et al.
# Submitted via: CDex 1.75
#
DISCID=4a0c7006
DTITLE=Correction - Swing
DYEAR=2016
DGENRE=Jazz
TTITLE0=Kuwaala
TTITLE1=Float
TTITLE2=Ndey
TTITLE3=Lester Leaps In
TTITLE4=Blues Connotation
TTITLE5=Twin Lake
EXTD=YEAR: 2016
EXTT0=
EXTT1=
EXTT2=
EXTT3=
EXTT4=
EXTT5=
PLAYORDER=
